<?xml version="1.0" standalone="no"?>
<!DOCTYPE svg PUBLIC "-//W3C//DTD SVG 20010904//EN"
 "http://www.w3.org/TR/2001/REC-SVG-20010904/DTD/svg10.dtd">
<svg version="1.0" xmlns="http://www.w3.org/2000/svg"
 width="202.000000pt" height="202.000000pt" viewBox="0 0 202.000000 202.000000"
 preserveAspectRatio="xMidYMid meet">

<g transform="translate(0.000000,202.000000) scale(0.100000,-0.100000)"
fill="#FF0000" stroke="none">
<path d="M1387 1415 c-15 -9 -32 -27 -37 -41 -6 -14 -10 -103 -10 -197 l0
-172 -23 27 c-12 15 -42 39 -67 52 l-45 25 -1 60 c-2 75 -31 139 -87 186 -60
52 -125 67 -258 63 -111 -3 -111 -3 -140 -36 -40 -44 -40 -93 0 -133 29 -28
32 -29 133 -29 113 0 148 -13 148 -54 0 -42 -15 -46 -176 -46 l-152 0 -73 125
c-39 70 -81 133 -93 140 -26 19 -86 19 -112 1 -28 -20 -384 -636 -384 -665 0
-84 111 -135 171 -78 13 12 78 115 143 230 66 114 122 207 126 207 3 0 60 -93
125 -207 66 -115 130 -218 142 -231 22 -21 27 -22 239 -22 246 0 274 5 340 63
l44 39 0 -27 c0 -88 102 -137 167 -81 l28 24 5 294 5 293 108 0 c107 0 109 -1
133 -28 30 -35 30 -52 -1 -82 -18 -19 -35 -25 -70 -25 -99 0 -151 -70 -111
-149 19 -36 55 -51 120 -51 174 0 298 127 283 290 -9 100 -65 178 -162 222
-46 21 -67 23 -240 25 -158 3 -195 1 -218 -12z m-227 -515 c24 -24 25 -38 3
-62 -14 -16 -33 -18 -167 -18 l-151 0 -22 40 c-13 21 -23 44 -23 49 0 7 58 11
170 11 157 0 172 -2 190 -20z"/>
<path d="M379 891 c-39 -40 -40 -89 -1 -132 24 -26 36 -32 72 -32 36 0 48 6
72 32 39 43 38 92 -1 132 -41 41 -101 41 -142 0z"/>
</g>
</svg>
